<?xml version="1.0" encoding="UTF-8" standalone="no"?>
<!-- Created with Inkscape (http://www.inkscape.org/) -->

<svg
   version="1.1"
   id="svg2"
   width="1000"
   height="666.66669"
   viewBox="0 0 1000 666.66669"
   sodipodi:docname="3024049.ai"
   xmlns:inkscape="http://www.inkscape.org/namespaces/inkscape"
   xmlns:sodipodi="http://sodipodi.sourceforge.net/DTD/sodipodi-0.dtd"
   xmlns="http://www.w3.org/2000/svg"
   xmlns:svg="http://www.w3.org/2000/svg">
  <defs
     id="defs6">
    <clipPath
       clipPathUnits="userSpaceOnUse"
       id="clipPath28">
      <path
         d="M 0,500 H 750 V 0 H 0 Z"
         id="path26" />
    </clipPath>
    <clipPath
       clipPathUnits="userSpaceOnUse"
       id="clipPath120">
      <path
         d="m 394.172,500 h 2.583 v -43.983 h -2.583 z"
         id="path118" />
    </clipPath>
    <clipPath
       clipPathUnits="userSpaceOnUse"
       id="clipPath134">
      <path
         d="M 0,500 H 750 V 0 H 0 Z"
         id="path132" />
    </clipPath>
    <clipPath
       clipPathUnits="userSpaceOnUse"
       id="clipPath146">
      <path
         d="M 0,500 H 750 V 0 H 0 Z"
         id="path144" />
    </clipPath>
    <clipPath
       clipPathUnits="userSpaceOnUse"
       id="clipPath160">
      <path
         d="M 0,500 H 750 V 0 H 0 Z"
         id="path158" />
    </clipPath>
    <clipPath
       clipPathUnits="userSpaceOnUse"
       id="clipPath172">
      <path
         d="M 0,500 H 750 V 0 H 0 Z"
         id="path170" />
    </clipPath>
    <clipPath
       clipPathUnits="userSpaceOnUse"
       id="clipPath204">
      <path
         d="M 0,500 H 750 V 0 H 0 Z"
         id="path202" />
    </clipPath>
    <clipPath
       clipPathUnits="userSpaceOnUse"
       id="clipPath372">
      <path
         d="m 577.768,315.128 h 31.484 v -41.463 h -31.484 z"
         id="path370" />
    </clipPath>
    <clipPath
       clipPathUnits="userSpaceOnUse"
       id="clipPath388">
      <path
         d="m 598.184,322.723 h 5.293 v -24.53 h -5.293 z"
         id="path386" />
    </clipPath>
    <clipPath
       clipPathUnits="userSpaceOnUse"
       id="clipPath528">
      <path
         d="M 0,500 H 750 V 0 H 0 Z"
         id="path526" />
    </clipPath>
    <clipPath
       clipPathUnits="userSpaceOnUse"
       id="clipPath540">
      <path
         d="M 258.968,277.73 H 560.914 V 59.8576 H 258.968 Z"
         id="path538" />
    </clipPath>
    <clipPath
       clipPathUnits="userSpaceOnUse"
       id="clipPath560">
      <path
         d="m 279.88,200.491 h 77.962 V 124.527 H 279.88 Z"
         id="path558" />
    </clipPath>
    <clipPath
       clipPathUnits="userSpaceOnUse"
       id="clipPath580">
      <path
         d="M 0,500 H 750 V 0 H 0 Z"
         id="path578" />
    </clipPath>
  </defs>
  <sodipodi:namedview
     id="namedview4"
     pagecolor="#ffffff"
     bordercolor="#000000"
     borderopacity="0.25"
     inkscape:showpageshadow="2"
     inkscape:pageopacity="0.0"
     inkscape:pagecheckerboard="0"
     inkscape:deskcolor="#d1d1d1" />
  <g
     id="g8"
     inkscape:groupmode="layer"
     inkscape:label="3024049"
     transform="matrix(1.3333333,0,0,-1.3333333,0,666.66667)">
    <g
       id="g10"
       transform="translate(330.3868,212.5065)">
      <path
         d="m 0,0 -112.205,-75.05 -110.508,165.218 112.206,75.05 z"
         style="fill:#f5f5f5;fill-opacity:1;fill-rule:nonzero;stroke:none"
         id="path12" />
    </g>
    <g
       id="g14"
       transform="translate(272.4196,220.3405)">
      <path
         d="m 0,0 -1.273,-7.881 -55.779,8.036 1.274,7.88 z"
         style="fill:#e1e1e1;fill-opacity:1;fill-rule:nonzero;stroke:none"
         id="path16" />
    </g>
    <g
       id="g18"
       transform="translate(244.3288,248.4538)">
      <path
         d="m 0,0 8.004,-1.153 -8.874,-54.918 -8.005,1.153 z"
         style="fill:#e1e1e1;fill-opacity:1;fill-rule:nonzero;stroke:none"
         id="path20" />
    </g>
    <g
       id="g22">
      <g
         id="g24"
         clip-path="url(#clipPath28)">
        <g
           id="g30"
           transform="translate(192.9518,318.2551)">
          <path
             d="m 0,0 c 0.08,-0.12 -11.165,-7.781 -25.112,-17.11 -13.952,-9.332 -25.324,-16.798 -25.404,-16.678 -0.08,0.119 11.162,7.779 25.115,17.111 C -11.454,-7.348 -0.08,0.119 0,0"
             style="fill:#e1e1e1;fill-opacity:1;fill-rule:nonzero;stroke:none"
             id="path32" />
        </g>
        <g
           id="g34"
           transform="translate(234.2155,328.613)">
          <path
             d="m 0,0 c 0.08,-0.12 -18.619,-12.767 -41.759,-28.244 -23.149,-15.484 -41.973,-27.934 -42.053,-27.814 -0.08,0.12 18.615,12.764 41.763,28.246 C -18.908,-12.333 -0.08,0.12 0,0"
             style="fill:#e1e1e1;fill-opacity:1;fill-rule:nonzero;stroke:none"
             id="path36" />
        </g>
        <g
           id="g38"
           transform="translate(242.487,316.2468)">
          <path
             d="m 0,0 c 0.08,-0.12 -18.619,-12.767 -41.759,-28.244 -23.149,-15.484 -41.973,-27.934 -42.053,-27.815 -0.08,0.12 18.615,12.765 41.763,28.247 C -18.908,-12.334 -0.08,0.12 0,0"
             style="fill:#e1e1e1;fill-opacity:1;fill-rule:nonzero;stroke:none"
             id="path40" />
        </g>
        <g
           id="g42"
           transform="translate(250.7584,303.8806)">
          <path
             d="m 0,0 c 0.08,-0.12 -18.619,-12.767 -41.759,-28.245 -23.149,-15.483 -41.973,-27.933 -42.054,-27.814 -0.079,0.12 18.615,12.764 41.764,28.247 C -18.909,-12.334 -0.08,0.119 0,0"
             style="fill:#e1e1e1;fill-opacity:1;fill-rule:nonzero;stroke:none"
             id="path44" />
        </g>
        <g
           id="g46"
           transform="translate(259.0294,291.5139)">
          <path
             d="m 0,0 c 0.08,-0.12 -18.619,-12.767 -41.759,-28.244 -23.149,-15.483 -41.973,-27.934 -42.053,-27.814 -0.08,0.119 18.615,12.764 41.763,28.246 C -18.908,-12.333 -0.08,0.12 0,0"
             style="fill:#e1e1e1;fill-opacity:1;fill-rule:nonzero;stroke:none"
             id="path48" />
        </g>
        <g
           id="g50"
           transform="translate(687.8815,128.2409)">
          <path
             d="m 0,0 -94.233,-63.028 -92.807,138.755 94.233,63.028 z"
             style="fill:#f5f5f5;fill-opacity:1;fill-rule:nonzero;stroke:none"
             id="path52" />
        </g>
        <g
           id="g54"
           transform="translate(639.1989,134.821)">
          <path
             d="m 0,0 -1.069,-6.619 -46.844,6.749 1.069,6.618 z"
             style="fill:#e1e1e1;fill-opacity:1;fill-rule:nonzero;stroke:none"
             id="path56" />
        </g>
        <g
           id="g58"
           transform="translate(615.608,158.4304)">
          <path
             d="m 0,0 6.722,-0.968 -7.453,-46.122 -6.722,0.969 z"
             style="fill:#e1e1e1;fill-opacity:1;fill-rule:nonzero;stroke:none"
             id="path60" />
        </g>
        <g
           id="g62"
           transform="translate(572.4596,217.0515)">
          <path
             d="m 0,0 c 0.08,-0.119 -9.353,-6.568 -21.066,-14.403 -11.718,-7.838 -21.279,-14.092 -21.359,-13.973 -0.08,0.12 9.352,6.568 21.07,14.405 C -9.643,-6.136 -0.08,0.12 0,0"
             style="fill:#e1e1e1;fill-opacity:1;fill-rule:nonzero;stroke:none"
             id="path64" />
        </g>
        <g
           id="g66"
           transform="translate(607.1139,225.7507)">
          <path
             d="m 0,0 c 0.08,-0.119 -15.613,-10.756 -35.047,-23.755 -19.441,-13.003 -35.261,-23.444 -35.341,-23.324 -0.08,0.119 15.611,10.754 35.051,23.757 C -15.902,-10.323 -0.08,0.12 0,0"
             style="fill:#e1e1e1;fill-opacity:1;fill-rule:nonzero;stroke:none"
             id="path68" />
        </g>
        <g
           id="g70"
           transform="translate(614.0612,215.3649)">
          <path
             d="m 0,0 c 0.08,-0.119 -15.614,-10.756 -35.048,-23.755 -19.44,-13.003 -35.261,-23.443 -35.341,-23.324 -0.079,0.119 15.611,10.754 35.052,23.757 C -15.903,-10.323 -0.08,0.12 0,0"
             style="fill:#e1e1e1;fill-opacity:1;fill-rule:nonzero;stroke:none"
             id="path72" />
        </g>
        <g
           id="g74"
           transform="translate(621.0074,204.9792)">
          <path
             d="m 0,0 c 0.08,-0.119 -15.613,-10.756 -35.048,-23.755 -19.44,-13.003 -35.26,-23.443 -35.34,-23.324 -0.08,0.119 15.61,10.754 35.051,23.757 C -15.903,-10.323 -0.08,0.12 0,0"
             style="fill:#e1e1e1;fill-opacity:1;fill-rule:nonzero;stroke:none"
             id="path76" />
        </g>
        <g
           id="g78"
           transform="translate(627.9537,194.5944)">
          <path
             d="m 0,0 c 0.08,-0.12 -15.613,-10.757 -35.047,-23.756 -19.441,-13.003 -35.261,-23.443 -35.341,-23.324 -0.08,0.12 15.61,10.754 35.051,23.758 C -15.903,-10.324 -0.08,0.119 0,0"
             style="fill:#e1e1e1;fill-opacity:1;fill-rule:nonzero;stroke:none"
             id="path80" />
        </g>
        <g
           id="g82"
           transform="translate(365.024,220.2722)">
          <path
             d="M 0,0 -102.819,54.989 -21.85,206.386 80.97,151.396 Z"
             style="fill:#f5f5f5;fill-opacity:1;fill-rule:nonzero;stroke:none"
             id="path84" />
        </g>
        <g
           id="g86"
           transform="translate(347.4225,267.632)">
          <path
             d="m 0,0 -6.523,-2.234 -16.558,45.774 6.523,2.234 z"
             style="fill:#e1e1e1;fill-opacity:1;fill-rule:nonzero;stroke:none"
             id="path88" />
        </g>
        <g
           id="g90"
           transform="translate(357.4235,300.4704)">
          <path
             d="m 0,0 2.376,-6.568 -45.459,-15.569 -2.376,6.569 z"
             style="fill:#e1e1e1;fill-opacity:1;fill-rule:nonzero;stroke:none"
             id="path92" />
        </g>
        <g
           id="g94"
           transform="translate(389.7242,368.0065)">
          <path
             d="m 0,0 c -0.08,-0.15 -10.509,5.27 -23.29,12.105 -12.785,6.838 -23.08,12.501 -23,12.652 0.081,0.15 10.507,-5.269 23.292,-12.107 C -10.218,5.815 0.081,0.15 0,0"
             style="fill:#e1e1e1;fill-opacity:1;fill-rule:nonzero;stroke:none"
             id="path96" />
        </g>
        <g
           id="g98"
           transform="translate(414.3971,340.7736)">
          <path
             d="m 0,0 c -0.08,-0.151 -17.34,8.923 -38.544,20.263 -21.212,11.345 -38.337,20.66 -38.256,20.811 0.08,0.151 17.335,-8.921 38.548,-20.265 C -17.048,9.468 0.08,0.15 0,0"
             style="fill:#e1e1e1;fill-opacity:1;fill-rule:nonzero;stroke:none"
             id="path100" />
        </g>
        <g
           id="g102"
           transform="translate(408.3365,329.4416)">
          <path
             d="m 0,0 c -0.08,-0.151 -17.339,8.923 -38.544,20.264 -21.212,11.344 -38.337,20.659 -38.256,20.81 0.08,0.151 17.336,-8.921 38.548,-20.265 C -17.048,9.468 0.081,0.15 0,0"
             style="fill:#e1e1e1;fill-opacity:1;fill-rule:nonzero;stroke:none"
             id="path104" />
        </g>
        <g
           id="g106"
           transform="translate(402.276,318.1096)">
          <path
             d="m 0,0 c -0.08,-0.15 -17.339,8.923 -38.544,20.264 -21.212,11.344 -38.337,20.66 -38.256,20.81 0.08,0.151 17.336,-8.921 38.548,-20.265 C -17.048,9.468 0.081,0.15 0,0"
             style="fill:#e1e1e1;fill-opacity:1;fill-rule:nonzero;stroke:none"
             id="path108" />
        </g>
        <g
           id="g110"
           transform="translate(396.2155,306.778)">
          <path
             d="m 0,0 c -0.08,-0.151 -17.339,8.923 -38.544,20.263 -21.212,11.345 -38.337,20.66 -38.256,20.811 0.08,0.151 17.336,-8.921 38.548,-20.265 C -17.048,9.468 0.081,0.15 0,0"
             style="fill:#e1e1e1;fill-opacity:1;fill-rule:nonzero;stroke:none"
             id="path112" />
        </g>
        <g
           id="g114">
          <g
             id="g116" />
          <g
             id="g126">
            <g
               clip-path="url(#clipPath120)"
               opacity="0.199997"
               id="g124">
              <path
                 d="m 396.755,500 h -2.583 v -43.983 h 2.583 z"
                 style="fill:#000000;fill-opacity:1;fill-rule:nonzero;stroke:none"
                 id="path122" />
            </g>
          </g>
        </g>
      </g>
    </g>
    <g
       id="g128">
      <g
         id="g130"
         clip-path="url(#clipPath134)">
        <g
           id="g136"
           transform="translate(150.6779,335.6315)">
          <path
             d="m 0,0 c -8.525,-67.104 25.888,-135.891 80.27,-176.118 54.382,-40.228 125.939,-53.465 192.899,-43.872 47.799,6.846 95.212,25.589 128.903,60.179 33.689,34.592 51.452,86.562 37.876,132.901 C 434.82,-9.407 424.75,7.549 408.767,16.336 383.248,30.366 351.748,20.077 324.591,9.559 297.436,-0.96 265.984,-11.322 240.404,2.596 220.749,13.291 210.657,35.294 196.251,52.417 171.757,81.532 131.97,96.985 94.246,92.035 89.53,91.416 84.866,90.481 80.282,89.251 40.149,78.483 9.808,45.512 1.054,4.893 Z"
             style="fill:#ececec;fill-opacity:1;fill-rule:nonzero;stroke:none"
             id="path138" />
        </g>
      </g>
    </g>
    <g
       id="g140">
      <g
         id="g142"
         clip-path="url(#clipPath146)">
        <g
           id="g148"
           transform="translate(335.2325,402.8112)">
          <path
             d="m 0,0 h 120.461 c 0,0 -11.122,53.234 -61.143,53.234 C 14.826,53.234 0,0 0,0"
             style="fill:#ff4f5b;fill-opacity:1;fill-rule:nonzero;stroke:none"
             id="path150" />
        </g>
        <path
           d="m 396.755,500 h -2.583 v -43.983 h 2.583 z"
           style="fill:#ff4f5b;fill-opacity:1;fill-rule:nonzero;stroke:none"
           id="path152" />
      </g>
    </g>
    <g
       id="g154">
      <g
         id="g156"
         clip-path="url(#clipPath160)">
        <g
           id="g162"
           transform="translate(663.6666,60.1716)">
          <path
             d="m 0,0 c 0,-0.144 -129.251,-0.261 -288.653,-0.261 -159.457,0 -288.68,0.117 -288.68,0.261 0,0.144 129.223,0.261 288.68,0.261 C -129.251,0.261 0,0.144 0,0"
             style="fill:#1a2e35;fill-opacity:1;fill-rule:nonzero;stroke:none"
             id="path164" />
        </g>
      </g>
    </g>
    <g
       id="g166">
      <g
         id="g168"
         clip-path="url(#clipPath172)">
        <g
           id="g174"
           transform="translate(118.2858,122.7985)">
          <path
             d="m 0,0 c 3.381,-0.118 6.555,-1.954 8.785,-4.498 2.23,-2.545 3.597,-5.744 4.472,-9.012 1.692,-6.323 0.652,-13.786 -1.152,-20.078 C 5.26,-31.142 1.038,-23.841 -0.871,-20.003 -3.888,-13.937 -5.657,-1.141 0,0"
             style="fill:#ff4f5b;fill-opacity:1;fill-rule:nonzero;stroke:none"
             id="path176" />
        </g>
        <g
           id="g178"
           transform="translate(140.2418,81.5466)">
          <path
             d="m 0,0 c -2.16,3.101 -2.211,7.413 -0.503,10.785 1.707,3.372 4.987,5.804 8.6,6.913 1.671,0.513 3.609,0.729 5.062,-0.242 1.359,-0.907 1.945,-2.687 1.77,-4.312 C 14.754,11.52 13.931,10.033 12.96,8.72 9.632,4.213 5.583,0.462 0,0"
             style="fill:#ff4f5b;fill-opacity:1;fill-rule:nonzero;stroke:none"
             id="path180" />
        </g>
        <g
           id="g182"
           transform="translate(140.9953,60.4157)">
          <path
             d="m 0,0 c -0.033,-0.005 -0.137,0.464 -0.306,1.313 -0.183,0.938 -0.42,2.15 -0.704,3.605 -0.54,3.03 -1.398,7.339 -0.749,12.103 0.623,4.743 2.511,8.797 4.49,11.218 0.975,1.225 1.907,2.092 2.597,2.625 0.334,0.281 0.628,0.453 0.815,0.585 0.191,0.126 0.296,0.186 0.305,0.172 C 6.523,31.537 4.848,30.505 2.997,28.035 1.122,25.606 -0.675,21.621 -1.289,16.958 -1.927,12.291 -1.137,8.021 -0.68,4.975 -0.435,3.445 -0.237,2.205 -0.124,1.344 -0.01,0.483 0.031,0.005 0,0"
             style="fill:#1a2e35;fill-opacity:1;fill-rule:nonzero;stroke:none"
             id="path184" />
        </g>
        <g
           id="g186"
           transform="translate(120.4938,113.1735)">
          <path
             d="m 0,0 c 0.015,0.007 0.109,-0.172 0.276,-0.519 0.182,-0.393 0.416,-0.898 0.705,-1.523 0.605,-1.327 1.456,-3.259 2.486,-5.653 2.063,-4.789 4.82,-11.446 7.698,-18.864 2.876,-7.421 5.328,-14.197 7.034,-19.124 0.853,-2.463 1.527,-4.463 1.975,-5.85 0.207,-0.657 0.375,-1.188 0.506,-1.602 0.111,-0.367 0.162,-0.563 0.146,-0.568 -0.015,-0.006 -0.096,0.18 -0.236,0.537 -0.153,0.406 -0.348,0.928 -0.59,1.572 -0.521,1.425 -1.239,3.392 -2.117,5.798 -1.786,4.898 -4.286,11.65 -7.161,19.066 -2.876,7.413 -5.581,14.084 -7.564,18.905 -0.974,2.37 -1.77,4.306 -2.346,5.71 C 0.556,-1.476 0.349,-0.959 0.188,-0.557 0.05,-0.198 -0.015,-0.006 0,0"
             style="fill:#1a2e35;fill-opacity:1;fill-rule:nonzero;stroke:none"
             id="path188" />
        </g>
        <g
           id="g190"
           transform="translate(132.8693,74.3962)">
          <path
             d="m 0,0 c -4.038,6.869 -11.575,11.553 -19.522,12.129 -2.024,0.147 -4.458,-0.193 -5.36,-2.011 -0.905,-1.82 0.304,-3.974 1.683,-5.468 5.737,-6.213 15.44,-8.379 23.274,-5.195"
             style="fill:#ff4f5b;fill-opacity:1;fill-rule:nonzero;stroke:none"
             id="path192" />
        </g>
        <g
           id="g194"
           transform="translate(116.4288,81.1081)">
          <path
             d="m 0,0 c 0.002,0.032 0.452,0.014 1.267,-0.047 0.408,-0.028 0.907,-0.064 1.479,-0.172 0.569,-0.105 1.233,-0.168 1.939,-0.364 0.711,-0.175 1.495,-0.349 2.307,-0.641 0.827,-0.245 1.677,-0.599 2.571,-0.977 1.764,-0.801 3.635,-1.85 5.417,-3.212 1.769,-1.379 3.263,-2.92 4.478,-4.431 0.584,-0.775 1.142,-1.509 1.577,-2.255 0.481,-0.717 0.838,-1.437 1.173,-2.089 0.36,-0.638 0.572,-1.271 0.806,-1.801 0.237,-0.532 0.385,-1.01 0.503,-1.401 0.243,-0.781 0.361,-1.214 0.33,-1.224 -0.101,-0.035 -0.588,1.713 -1.936,4.273 -0.351,0.632 -0.719,1.333 -1.207,2.03 -0.442,0.726 -1.004,1.439 -1.587,2.194 -1.214,1.471 -2.689,2.973 -4.427,4.328 C 12.94,-4.451 11.109,-3.41 9.383,-2.6 8.509,-2.217 7.677,-1.854 6.866,-1.597 6.072,-1.292 5.302,-1.103 4.605,-0.909 1.799,-0.199 -0.011,-0.104 0,0"
             style="fill:#1a2e35;fill-opacity:1;fill-rule:nonzero;stroke:none"
             id="path196" />
        </g>
      </g>
    </g>
    <g
       id="g198">
      <g
         id="g200"
         clip-path="url(#clipPath204)">
        <g
           id="g206"
           transform="translate(570.361,394.5251)">
          <path
             d="m 0,0 c -2.94,-0.677 -4.372,-4.06 -4.65,-7.064 -0.279,-3.005 0.104,-6.178 -1.158,-8.919 -1.421,-3.085 -4.812,-5.359 -4.925,-8.753 -0.069,-2.07 1.16,-4.016 1.101,-6.085 -0.097,-3.4 -3.563,-5.969 -3.745,-9.364 -0.131,-2.445 1.498,-4.792 1.106,-7.209 -0.305,-1.881 -1.769,-3.363 -2.388,-5.165 -1.235,-3.593 1.233,-7.548 4.449,-9.571 3.583,-2.253 8.171,-2.835 12.202,-1.547 4.032,1.288 7.433,4.423 9.045,8.336 1.779,4.319 1.391,9.182 1.004,13.837 -1.205,14.505 -2.101,29.036 -2.686,43.58"
             style="fill:#1a2e35;fill-opacity:1;fill-rule:nonzero;stroke:none"
             id="path208" />
        </g>
        <g
           id="g210"
           transform="translate(561.8248,343.3361)">
          <path
             d="m 0,0 c -0.063,0.058 0.804,0.315 1.343,1.598 0.261,0.628 0.395,1.471 0.343,2.441 -0.035,0.977 -0.368,2.04 -0.73,3.238 -0.335,1.189 -0.771,2.567 -0.521,4.1 0.252,1.558 1.366,2.836 2.382,4.093 0.512,0.636 1.027,1.298 1.351,2.052 0.341,0.745 0.413,1.598 0.156,2.397 -0.516,1.635 -2.117,2.836 -2.852,4.723 -0.365,0.944 -0.368,1.983 -0.16,2.918 0.197,0.943 0.58,1.8 0.964,2.617 0.784,1.628 1.646,3.121 1.988,4.705 0.701,3.172 0.374,6.2 0.851,8.687 0.433,2.492 1.486,4.366 2.529,5.328 0.507,0.499 1,0.764 1.321,0.942 0.342,0.147 0.522,0.215 0.529,0.199 C 9.527,49.981 8.753,49.744 7.787,48.754 6.822,47.78 5.855,45.947 5.478,43.508 5.279,42.295 5.25,40.931 5.2,39.467 5.148,38.004 5.103,36.415 4.73,34.773 4.383,33.108 3.497,31.557 2.737,29.958 1.985,28.387 1.295,26.544 1.96,24.823 2.595,23.121 4.206,21.912 4.811,20.073 5.106,19.158 5.01,18.144 4.624,17.324 4.257,16.49 3.712,15.808 3.19,15.167 2.145,13.904 1.099,12.701 0.859,11.302 0.609,9.91 0.995,8.567 1.311,7.378 1.646,6.189 1.969,5.069 1.977,4.052 2.003,3.043 1.834,2.166 1.529,1.517 1.228,0.864 0.814,0.46 0.505,0.255 0.196,0.044 0,0 0,0"
             style="fill:#375a64;fill-opacity:1;fill-rule:nonzero;stroke:none"
             id="path212" />
        </g>
        <g
           id="g214"
           transform="translate(553.9508,319.634)">
          <path
             d="m 0,0 -9.026,-26.022 -37.644,-2.018 -6.277,-13.968 39.301,-3.976 c 7.836,-3.24 16.79,0.731 19.65,8.714 l 10.488,29.275 z"
             style="fill:#c78976;fill-opacity:1;fill-rule:nonzero;stroke:none"
             id="path216" />
        </g>
        <g
           id="g218"
           transform="translate(631.8141,74.3024)">
          <path
             d="m 0,0 c 0,0 -27.587,87.618 -28.172,90.463 -0.529,2.57 10.012,65.623 11.339,81.941 l -37.274,-1.389 c 0,0 -10e-4,-0.099 -0.003,-0.272 l -15.844,-0.879 14.19,-179.193 h 17.154 l -1.702,59.451 c 10.578,-28.396 25.735,-57.335 25.735,-57.335 z"
             style="fill:#c78976;fill-opacity:1;fill-rule:nonzero;stroke:none"
             id="path220" />
        </g>
        <g
           id="g222"
           transform="translate(592.2028,103.1169)">
          <path
             d="M 0,0 C 0.015,0.544 -0.208,19.919 -0.208,19.919 -0.422,18.76 -6.784,36.742 -6.63,37.835 -6.551,38.401 0,0 0,0"
             style="fill:#b66955;fill-opacity:1;fill-rule:nonzero;stroke:none"
             id="path224" />
        </g>
        <g
           id="g226"
           transform="translate(584.8473,149.4655)">
          <path
             d="m 0,0 c -0.04,0 -0.077,-0.386 -0.11,-1.086 -0.037,-0.7 -0.045,-1.717 0.022,-2.971 0.025,-0.629 0.09,-1.313 0.171,-2.048 0.094,-0.734 0.194,-1.52 0.364,-2.334 0.311,-1.636 0.791,-3.406 1.403,-5.221 1.245,-3.624 2.619,-6.795 3.595,-9.096 0.462,-1.049 0.86,-1.951 1.194,-2.709 0.293,-0.635 0.472,-0.979 0.508,-0.965 0.038,0.015 -0.073,0.387 -0.302,1.048 -0.23,0.661 -0.58,1.611 -1.027,2.778 -0.881,2.338 -2.195,5.534 -3.428,9.125 -0.606,1.799 -1.094,3.538 -1.428,5.143 -0.182,0.8 -0.298,1.571 -0.41,2.292 C 0.451,-5.321 0.363,-4.647 0.314,-4.027 0.196,-2.79 0.143,-1.782 0.111,-1.085 0.077,-0.388 0.039,-0.001 0,0"
             style="fill:#b66955;fill-opacity:1;fill-rule:nonzero;stroke:none"
             id="path228" />
        </g>
        <g
           id="g230"
           transform="translate(575.7281,64.0895)">
          <path
             d="m 0,0 -0.007,1.611 17.569,0.766 0.049,-6.646 -1.084,-0.072 C 11.704,-4.623 -8.015,-5.437 -11.242,-4.47 -14.842,-3.39 0,0 0,0"
             style="fill:#375a64;fill-opacity:1;fill-rule:nonzero;stroke:none"
             id="path232" />
        </g>
        <g
           id="g234"
           transform="translate(593.5846,60.2233)">
          <path
             d="m 0,0 c 0,-0.007 -0.104,-0.019 -0.301,-0.033 -0.259,-0.017 -0.543,-0.035 -0.863,-0.056 -0.863,-0.04 -1.924,-0.09 -3.176,-0.148 -2.683,-0.106 -6.392,-0.203 -10.489,-0.222 -4.099,-0.018 -7.809,0.048 -10.492,0.13 -1.253,0.048 -2.315,0.088 -3.178,0.121 -0.32,0.018 -0.605,0.033 -0.863,0.048 -0.198,0.013 -0.301,0.023 -0.301,0.03 0,0.008 0.104,0.012 0.302,0.012 0.259,-0.002 0.544,-0.005 0.864,-0.008 0.864,-0.015 1.926,-0.032 3.179,-0.053 2.683,-0.045 6.391,-0.086 10.488,-0.068 4.095,0.018 7.802,0.092 10.485,0.16 1.253,0.031 2.315,0.059 3.178,0.081 C -0.847,0 -0.562,0.005 -0.303,0.01 -0.104,0.011 -0.001,0.008 0,0"
             style="fill:#1a2e35;fill-opacity:1;fill-rule:nonzero;stroke:none"
             id="path236" />
        </g>
        <g
           id="g238"
           transform="translate(570.0367,59.6579)">
          <path
             d="M 0,0 C -0.065,-0.009 -0.117,0.75 -0.6,1.514 -1.068,2.287 -1.723,2.672 -1.687,2.727 -1.675,2.779 -0.924,2.452 -0.419,1.625 0.095,0.805 0.052,-0.013 0,0"
             style="fill:#1a2e35;fill-opacity:1;fill-rule:nonzero;stroke:none"
             id="path240" />
        </g>
        <g
           id="g242"
           transform="translate(575.1842,62.2927)">
          <path
             d="M 0,0 C -0.049,-0.031 -0.297,0.269 -0.553,0.669 -0.81,1.069 -0.978,1.42 -0.928,1.452 -0.879,1.483 -0.631,1.184 -0.375,0.783 -0.118,0.382 0.05,0.032 0,0"
             style="fill:#1a2e35;fill-opacity:1;fill-rule:nonzero;stroke:none"
             id="path244" />
        </g>
        <g
           id="g246"
           transform="translate(576.5973,63.0466)">
          <path
             d="M 0,0 C -0.039,-0.044 -0.315,0.14 -0.617,0.409 -0.92,0.679 -1.133,0.933 -1.094,0.976 -1.056,1.02 -0.778,0.837 -0.477,0.567 -0.175,0.298 0.039,0.044 0,0"
             style="fill:#1a2e35;fill-opacity:1;fill-rule:nonzero;stroke:none"
             id="path248" />
        </g>
        <g
           id="g250"
           transform="translate(577.486,64.6999)">
          <path
             d="m 0,0 c 0.001,-0.059 -0.407,-0.112 -0.911,-0.12 -0.505,-0.007 -0.914,0.034 -0.915,0.093 -10e-4,0.058 0.407,0.111 0.912,0.119 C -0.41,0.1 -0.001,0.059 0,0"
             style="fill:#1a2e35;fill-opacity:1;fill-rule:nonzero;stroke:none"
             id="path252" />
        </g>
        <g
           id="g254"
           transform="translate(577.7887,65.864)">
          <path
             d="m 0,0 c 0.021,-0.052 -0.424,-0.254 -1.017,-0.3 -0.591,-0.048 -1.062,0.082 -1.05,0.137 0.008,0.06 0.471,0.028 1.034,0.075 C -0.471,-0.046 -0.019,0.059 0,0"
             style="fill:#1a2e35;fill-opacity:1;fill-rule:nonzero;stroke:none"
             id="path256" />
        </g>
        <g
           id="g258"
           transform="translate(574.5865,63.8151)">
          <path
             d="M 0,0 C 0.001,-0.023 -0.43,-0.077 -1.124,0.004 -1.47,0.044 -1.88,0.124 -2.32,0.263 -2.54,0.34 -2.769,0.397 -3.006,0.542 -3.117,0.616 -3.241,0.72 -3.285,0.891 c -0.047,0.168 0.042,0.357 0.168,0.449 1.072,0.56 2.149,-0.04 2.55,-0.593 0.22,-0.283 0.322,-0.559 0.369,-0.749 0.046,-0.191 0.043,-0.301 0.03,-0.303 -0.039,-0.014 -0.077,0.442 -0.515,0.956 -0.215,0.252 -0.543,0.497 -0.962,0.62 C -2.042,1.388 -2.606,1.417 -2.983,1.176 -3.161,1.043 -3.091,0.833 -2.892,0.716 -2.707,0.597 -2.468,0.525 -2.26,0.448 -1.834,0.304 -1.437,0.21 -1.102,0.151 -0.429,0.035 0,0.035 0,0"
             style="fill:#1a2e35;fill-opacity:1;fill-rule:nonzero;stroke:none"
             id="path260" />
        </g>
        <g
           id="g262"
           transform="translate(574.2955,63.7595)">
          <path
             d="m 0,0 c -0.016,-0.013 -0.183,0.273 -0.133,0.779 0.027,0.248 0.116,0.542 0.304,0.822 0.197,0.25 0.451,0.594 0.933,0.576 C 1.364,2.145 1.493,1.849 1.452,1.659 1.433,1.462 1.345,1.293 1.264,1.157 1.098,0.876 0.909,0.647 0.735,0.476 0.384,0.13 0.106,-0.003 0.094,0.019 0.074,0.046 0.317,0.221 0.626,0.577 0.779,0.756 0.945,0.981 1.094,1.253 1.247,1.491 1.351,1.918 1.068,1.968 0.788,1.994 0.502,1.713 0.331,1.488 0.155,1.244 0.058,0.982 0.016,0.757 -0.068,0.299 0.037,0.008 0,0"
             style="fill:#1a2e35;fill-opacity:1;fill-rule:nonzero;stroke:none"
             id="path264" />
        </g>
        <g
           id="g266"
           transform="translate(593.2096,65.0056)">
          <path
             d="m 0,0 c -0.003,-0.04 -0.5,0.046 -1.29,-0.051 -0.782,-0.09 -1.87,-0.415 -2.814,-1.171 -0.943,-0.758 -1.495,-1.75 -1.751,-2.495 -0.264,-0.75 -0.289,-1.254 -0.328,-1.249 -0.013,0.001 -0.019,0.127 -0.002,0.353 0.018,0.226 0.071,0.552 0.187,0.943 0.227,0.776 0.778,1.822 1.762,2.613 0.984,0.789 2.124,1.102 2.931,1.156 0.407,0.029 0.737,0.01 0.961,-0.022 C -0.119,0.046 0.003,0.013 0,0"
             style="fill:#1a2e35;fill-opacity:1;fill-rule:nonzero;stroke:none"
             id="path268" />
        </g>
        <g
           id="g270"
           transform="translate(584.7955,61.6159)">
          <path
             d="m 0,0 c 0.008,-0.055 -1.133,-0.237 -2.553,-0.242 -1.421,-0.01 -2.562,0.16 -2.555,0.215 0.005,0.061 1.147,-0.013 2.554,-0.004 C -1.146,-0.025 -0.007,0.062 0,0"
             style="fill:#1a2e35;fill-opacity:1;fill-rule:nonzero;stroke:none"
             id="path272" />
        </g>
        <g
           id="g274"
           transform="translate(588.2203,61.653)">
          <path
             d="m 0,0 c 0.043,-0.042 -0.093,-0.242 -0.208,-0.504 -0.119,-0.262 -0.179,-0.495 -0.238,-0.491 -0.057,0 -0.092,0.275 0.045,0.577 C -0.267,-0.115 -0.037,0.043 0,0"
             style="fill:#1a2e35;fill-opacity:1;fill-rule:nonzero;stroke:none"
             id="path276" />
        </g>
        <g
           id="g278"
           transform="translate(589.5065,63.2653)">
          <path
             d="m 0,0 c 0.041,-0.042 -0.071,-0.224 -0.251,-0.407 -0.181,-0.185 -0.36,-0.301 -0.402,-0.26 -0.041,0.041 0.07,0.224 0.251,0.407 0.179,0.185 0.36,0.3 0.402,0.26"
             style="fill:#1a2e35;fill-opacity:1;fill-rule:nonzero;stroke:none"
             id="path280" />
        </g>
        <g
           id="g282"
           transform="translate(591.3502,64.0056)">
          <path
             d="m 0,0 c -0.012,-0.06 -0.244,-0.058 -0.5,-0.149 -0.259,-0.085 -0.441,-0.229 -0.487,-0.19 -0.047,0.032 0.099,0.281 0.419,0.39 C -0.251,0.161 0.019,0.055 0,0"
             style="fill:#1a2e35;fill-opacity:1;fill-rule:nonzero;stroke:none"
             id="path284" />
        </g>
        <g
           id="g286"
           transform="translate(592.6647,64.3571)">
          <path
             d="m 0,0 c 0.021,-0.055 -0.079,-0.145 -0.224,-0.201 -0.144,-0.058 -0.279,-0.059 -0.3,-0.005 -0.022,0.055 0.079,0.144 0.223,0.201 C -0.156,0.053 -0.021,0.054 0,0"
             style="fill:#1a2e35;fill-opacity:1;fill-rule:nonzero;stroke:none"
             id="path288" />
        </g>
        <g
           id="g290"
           transform="translate(616.8932,65.6393)">
          <path
             d="M 0,0 -0.667,1.467 15.048,9.362 17.813,3.32 16.854,2.81 C 12.571,0.577 -5.085,-8.242 -8.426,-8.682 -12.151,-9.171 0,0 0,0"
             style="fill:#375a64;fill-opacity:1;fill-rule:nonzero;stroke:none"
             id="path292" />
        </g>
        <g
           id="g294"
           transform="translate(634.7653,69.4274)">
          <path
             d="m 0,0 c 0.004,-0.007 -0.086,-0.06 -0.26,-0.154 -0.229,-0.121 -0.48,-0.254 -0.764,-0.404 -0.771,-0.39 -1.719,-0.87 -2.837,-1.436 -2.405,-1.196 -5.748,-2.805 -9.478,-4.5 -3.732,-1.694 -7.143,-3.154 -9.626,-4.179 -1.162,-0.47 -2.146,-0.867 -2.947,-1.191 -0.3,-0.115 -0.566,-0.217 -0.808,-0.311 -0.185,-0.068 -0.284,-0.101 -0.287,-0.095 -0.002,0.007 0.091,0.053 0.272,0.135 0.237,0.104 0.497,0.218 0.791,0.347 0.794,0.341 1.77,0.759 2.922,1.254 2.466,1.058 5.866,2.54 9.595,4.233 3.728,1.695 7.079,3.28 9.5,4.441 1.129,0.543 2.087,1.002 2.865,1.376 0.291,0.136 0.548,0.257 0.783,0.368 C -0.099,-0.034 -0.003,0.006 0,0"
             style="fill:#1a2e35;fill-opacity:1;fill-rule:nonzero;stroke:none"
             id="path296" />
        </g>
        <g
           id="g298"
           transform="translate(613.5162,59.2653)">
          <path
             d="m 0,0 c -0.056,-0.034 -0.415,0.636 -1.167,1.136 -0.744,0.512 -1.5,0.596 -1.489,0.661 -0.01,0.053 0.808,0.062 1.608,-0.485 C -0.243,0.773 0.053,0.01 0,0"
             style="fill:#1a2e35;fill-opacity:1;fill-rule:nonzero;stroke:none"
             id="path300" />
        </g>
        <g
           id="g302"
           transform="translate(617.1324,63.778)">
          <path
             d="m 0,0 c -0.031,-0.049 -0.381,0.123 -0.778,0.383 -0.399,0.261 -0.696,0.512 -0.663,0.56 0.032,0.05 0.38,-0.122 0.779,-0.382 C -0.265,0.3 0.032,0.049 0,0"
             style="fill:#1a2e35;fill-opacity:1;fill-rule:nonzero;stroke:none"
             id="path304" />
        </g>
        <g
           id="g306"
           transform="translate(618.1129,65.0436)">
          <path
             d="m 0,0 c -0.018,-0.056 -0.345,-0.002 -0.73,0.12 -0.387,0.122 -0.686,0.267 -0.667,0.322 0.017,0.056 0.344,0.002 0.73,-0.12 C -0.281,0.2 0.018,0.057 0,0"
             style="fill:#1a2e35;fill-opacity:1;fill-rule:nonzero;stroke:none"
             id="path308" />
        </g>
        <g
           id="g310"
           transform="translate(618.2467,66.9167)">
          <path
             d="m 0,0 c 0.024,-0.054 -0.326,-0.27 -0.782,-0.483 -0.458,-0.213 -0.848,-0.343 -0.873,-0.29 -0.025,0.052 0.326,0.268 0.783,0.482 C -0.415,-0.077 -0.024,0.053 0,0"
             style="fill:#1a2e35;fill-opacity:1;fill-rule:nonzero;stroke:none"
             id="path312" />
        </g>
        <g
           id="g314"
           transform="translate(618.0455,68.1022)">
          <path
             d="m 0,0 c 0.04,-0.039 -0.282,-0.405 -0.805,-0.689 -0.52,-0.288 -1.003,-0.361 -1.014,-0.307 -0.016,0.059 0.419,0.22 0.913,0.492 C -0.41,-0.234 -0.041,0.046 0,0"
             style="fill:#1a2e35;fill-opacity:1;fill-rule:nonzero;stroke:none"
             id="path316" />
        </g>
        <g
           id="g318"
           transform="translate(615.9635,64.9216)">
          <path
             d="m 0,0 c 0.011,-0.021 -0.36,-0.247 -1.026,-0.457 -0.332,-0.105 -0.74,-0.199 -1.199,-0.254 -0.231,-0.019 -0.463,-0.06 -0.739,-0.025 -0.133,0.021 -0.288,0.065 -0.397,0.203 -0.113,0.134 -0.109,0.343 -0.031,0.479 0.748,0.95 1.977,0.844 2.569,0.503 0.317,-0.168 0.522,-0.378 0.643,-0.532 0.12,-0.156 0.162,-0.257 0.152,-0.264 -0.031,-0.029 -0.252,0.371 -0.862,0.661 -0.299,0.142 -0.698,0.232 -1.131,0.172 -0.41,-0.056 -0.937,-0.26 -1.182,-0.635 -0.108,-0.195 0.042,-0.357 0.271,-0.382 0.218,-0.032 0.466,0 0.687,0.014 0.448,0.042 0.848,0.12 1.178,0.205 C -0.405,-0.144 -0.015,0.032 0,0"
             style="fill:#1a2e35;fill-opacity:1;fill-rule:nonzero;stroke:none"
             id="path320" />
        </g>
        <g
           id="g322"
           transform="translate(615.7213,64.7507)">
          <path
             d="M 0,0 C -0.01,-0.018 -0.279,0.176 -0.44,0.657 -0.518,0.895 -0.557,1.2 -0.5,1.531 -0.422,1.84 -0.331,2.259 0.115,2.438 0.366,2.517 0.952,2.012 0.993,1.822 1.056,1.635 0.696,1.731 0.679,1.573 0.643,1.249 0.563,0.964 0.476,0.735 0.297,0.276 0.099,0.042 0.078,0.056 0.049,0.073 0.199,0.332 0.334,0.784 0.4,1.01 0.46,1.284 0.484,1.592 0.526,1.872 0.446,2.304 0.169,2.233 -0.099,2.143 -0.244,1.77 -0.309,1.494 -0.368,1.2 -0.35,0.921 -0.296,0.697 -0.186,0.246 0.03,0.023 0,0"
             style="fill:#1a2e35;fill-opacity:1;fill-rule:nonzero;stroke:none"
             id="path324" />
        </g>
        <g
           id="g326"
           transform="translate(632.4655,73.6354)">
          <path
             d="m 0,0 c 0.013,-0.037 -0.476,-0.163 -1.156,-0.574 -0.677,-0.403 -1.536,-1.145 -2.087,-2.221 -0.55,-1.078 -0.648,-2.209 -0.576,-2.993 0.066,-0.793 0.251,-1.263 0.213,-1.274 -0.013,-0.004 -0.071,0.107 -0.147,0.321 -0.076,0.214 -0.162,0.533 -0.216,0.937 -0.111,0.801 -0.036,1.981 0.537,3.105 0.575,1.123 1.487,1.876 2.201,2.255 0.358,0.194 0.668,0.311 0.885,0.375 C -0.128,-0.006 -0.003,0.013 0,0"
             style="fill:#1a2e35;fill-opacity:1;fill-rule:nonzero;stroke:none"
             id="path328" />
        </g>
        <g
           id="g330"
           transform="translate(626.1774,67.0974)">
          <path
             d="m 0,0 c 0.029,-0.047 -0.936,-0.68 -2.229,-1.268 -1.292,-0.59 -2.403,-0.903 -2.419,-0.85 -0.02,0.058 1.051,0.458 2.332,1.044 C -1.035,-0.493 -0.03,0.054 0,0"
             style="fill:#1a2e35;fill-opacity:1;fill-rule:nonzero;stroke:none"
             id="path332" />
        </g>
        <g
           id="g334"
           transform="translate(629.2867,68.5339)">
          <path
             d="M 0,0 C 0.057,-0.021 0.015,-0.259 0.018,-0.545 0.015,-0.832 0.057,-1.069 0,-1.091 -0.051,-1.114 -0.195,-0.877 -0.195,-0.545 -0.195,-0.214 -0.052,0.023 0,0"
             style="fill:#1a2e35;fill-opacity:1;fill-rule:nonzero;stroke:none"
             id="path336" />
        </g>
        <g
           id="g338"
           transform="translate(629.7994,70.5309)">
          <path
             d="m 0,0 c 0.055,-0.021 0.027,-0.232 -0.062,-0.475 -0.088,-0.241 -0.206,-0.421 -0.26,-0.4 -0.055,0.02 -0.028,0.232 0.061,0.474 C -0.172,-0.159 -0.055,0.021 0,0"
             style="fill:#1a2e35;fill-opacity:1;fill-rule:nonzero;stroke:none"
             id="path340" />
        </g>
        <g
           id="g342"
           transform="translate(631.1793,71.9626)">
          <path
             d="m 0,0 c 0.013,-0.06 -0.199,-0.153 -0.396,-0.342 -0.201,-0.183 -0.308,-0.389 -0.367,-0.372 -0.055,0.01 -0.024,0.298 0.222,0.527 C -0.296,0.044 -0.007,0.057 0,0"
             style="fill:#1a2e35;fill-opacity:1;fill-rule:nonzero;stroke:none"
             id="path344" />
        </g>
        <g
           id="g346"
           transform="translate(632.234,72.821)">
          <path
             d="m 0,0 c 0.042,-0.041 -0.013,-0.164 -0.122,-0.275 -0.108,-0.112 -0.231,-0.168 -0.273,-0.127 -0.042,0.041 0.013,0.164 0.122,0.275 C -0.164,-0.016 -0.042,0.041 0,0"
             style="fill:#1a2e35;fill-opacity:1;fill-rule:nonzero;stroke:none"
             id="path348" />
        </g>
        <g
           id="g350"
           transform="translate(612.5641,276.3644)">
          <path
             d="M 0,0 -2.926,35.697 12.103,35.43 c 0,0 0.696,5.262 -1.518,16.808 C 9.227,59.318 4.512,63.66 -0.776,66.24 l 0.001,0.095 -0.458,0.12 c -6.726,3.148 -13.766,3.592 -13.766,3.592 l -18.446,-0.214 c 0,0 -14.093,1.759 -21.893,-8.287 C -58.343,57.676 -67.64,31.19 -67.64,31.19 l 22.142,-10.663 -2.107,14.687 c 0,0 0.418,-10.649 1.778,-14.023 0.757,-1.88 2.949,-7.716 2.949,-7.716 L -43.164,-4.14 Z"
             style="fill:#ff4f5b;fill-opacity:1;fill-rule:nonzero;stroke:none"
             id="path352" />
        </g>
        <g
           id="g354"
           transform="translate(602.3864,317.2438)">
          <path
             d="M 0,0 -2.737,-11.666 H 23.094 L 21.395,7.892 Z"
             style="fill:#ff4f5b;fill-opacity:1;fill-rule:nonzero;stroke:none"
             id="path356" />
        </g>
        <g
           id="g358"
           transform="translate(625.4801,305.5783)">
          <path
             d="m 0,0 c 0.003,0.077 -1.303,0.213 -3.419,0.338 -2.117,0.125 -5.047,0.229 -8.284,0.215 -3.238,-0.016 -6.168,-0.157 -8.283,-0.324 -2.116,-0.167 -3.416,-0.346 -3.41,-0.421 0.005,-0.082 1.316,-0.045 3.431,0.019 2.116,0.064 5.036,0.14 8.265,0.156 3.227,0.015 6.149,-0.026 8.266,-0.047 C -1.316,-0.086 -0.004,-0.081 0,0"
             style="fill:#1a2e35;fill-opacity:1;fill-rule:nonzero;stroke:none"
             id="path360" />
        </g>
        <g
           id="g362"
           transform="translate(601.2731,325.2316)">
          <path
             d="m 0,0 c -0.078,-0.003 -0.105,-1.137 -0.086,-2.967 0.02,-1.831 0.086,-4.358 0.194,-7.147 0.109,-2.791 0.239,-5.316 0.361,-7.142 0.122,-1.827 0.237,-2.954 0.316,-2.952 0.078,0.003 0.106,1.137 0.086,2.967 -0.019,1.831 -0.085,4.358 -0.193,7.149 -0.109,2.789 -0.239,5.314 -0.362,7.14 C 0.194,-1.125 0.079,0.003 0,0"
             style="fill:#1a2e35;fill-opacity:1;fill-rule:nonzero;stroke:none"
             id="path364" />
        </g>
        <g
           id="g366">
          <g
             id="g368" />
          <g
             id="g380">
            <g
               clip-path="url(#clipPath372)"
               opacity="0.300003"
               id="g378">
              <g
                 transform="translate(577.7682,315.1276)"
                 id="g376">
                <path
                   d="m 0,0 c 0,0 5.741,-42.567 21.881,-41.441 0,0 7.266,0.087 9.602,4.916 v 1.901 z"
                   style="fill:#000000;fill-opacity:1;fill-rule:nonzero;stroke:none"
                   id="path374" />
              </g>
            </g>
          </g>
        </g>
        <g
           id="g382">
          <g
             id="g384" />
          <g
             id="g396">
            <g
               clip-path="url(#clipPath388)"
               opacity="0.300003"
               id="g394">
              <g
                 transform="translate(601.2731,322.7228)"
                 id="g392">
                <path
                   d="m 0,0 -3.09,-20.868 2.001,-3.662 3.292,7.16 -1.392,0.034 z"
                   style="fill:#000000;fill-opacity:1;fill-rule:nonzero;stroke:none"
                   id="path390" />
              </g>
            </g>
          </g>
        </g>
        <g
           id="g398"
           transform="translate(569.6862,289.8395)">
          <path
             d="m 0,0 c -0.034,-0.012 -0.187,0.344 -0.437,0.997 -0.25,0.652 -0.584,1.606 -0.969,2.794 -0.772,2.376 -1.725,5.701 -2.471,9.445 -0.742,3.747 -1.105,7.194 -1.224,9.691 -0.06,1.249 -0.079,2.26 -0.06,2.96 0.014,0.698 0.039,1.085 0.075,1.085 0.082,10e-4 0.139,-1.541 0.353,-4.019 0.212,-2.479 0.629,-5.892 1.367,-9.616 C -2.624,9.616 -1.733,6.293 -1.054,3.898 -0.736,2.786 -0.467,1.84 -0.244,1.06 -0.055,0.389 0.034,0.011 0,0"
             style="fill:#1a2e35;fill-opacity:1;fill-rule:nonzero;stroke:none"
             id="path400" />
        </g>
        <g
           id="g402"
           transform="translate(576.2115,277.6071)">
          <path
             d="M 0,0 C -0.138,-0.042 -0.537,0.877 -0.892,2.051 -1.247,3.226 -1.424,4.211 -1.286,4.253 -1.148,4.295 -0.749,3.376 -0.394,2.202 -0.038,1.028 0.138,0.042 0,0"
             style="fill:#1a2e35;fill-opacity:1;fill-rule:nonzero;stroke:none"
             id="path404" />
        </g>
        <g
           id="g406"
           transform="translate(578.443,277.7702)">
          <path
             d="M 0,0 C -0.133,-0.034 -0.568,1.344 -0.59,3.111 -0.62,4.879 -0.226,6.27 -0.092,6.239 0.057,6.212 -0.1,4.825 -0.069,3.119 -0.05,1.414 0.147,0.031 0,0"
             style="fill:#1a2e35;fill-opacity:1;fill-rule:nonzero;stroke:none"
             id="path408" />
        </g>
        <g
           id="g410"
           transform="translate(567.5153,296.404)">
          <path
             d="m 0,0 c -0.063,-0.129 -5.217,2.316 -11.508,5.459 -6.293,3.145 -11.341,5.798 -11.276,5.926 0.064,0.129 5.217,-2.315 11.51,-5.46 C -4.984,2.782 0.064,0.128 0,0"
             style="fill:#1a2e35;fill-opacity:1;fill-rule:nonzero;stroke:none"
             id="path412" />
        </g>
        <g
           id="g414"
           transform="translate(576.5953,342.7468)">
          <path
             d="m 0,0 c 0.115,5.059 0.144,10.387 0.144,10.387 0,0 -6.489,1.25 -7.62,9.788 -1.078,8.142 1.938,27.247 1.938,27.247 9.478,3.583 19.328,0.335 25.822,-7.345 L 18.672,-0.997 C 18.485,-5.765 14.236,-9.402 9.132,-9.163 3.977,-8.921 -0.109,-4.82 0,0"
             style="fill:#c78976;fill-opacity:1;fill-rule:nonzero;stroke:none"
             id="path416" />
        </g>
        <g
           id="g418"
           transform="translate(570.5651,374.9001)">
          <path
             d="m 0,0 c -0.035,-0.575 0.423,-1.08 1.022,-1.127 0.6,-0.048 1.115,0.378 1.15,0.954 C 2.207,0.402 1.749,0.907 1.15,0.955 0.55,1.003 0.035,0.575 0,0"
             style="fill:#1a2e35;fill-opacity:1;fill-rule:nonzero;stroke:none"
             id="path420" />
        </g>
        <g
           id="g422"
           transform="translate(570.1588,376.3332)">
          <path
             d="M 0,0 C 0.132,-0.146 0.974,0.444 2.146,0.411 3.319,0.394 4.165,-0.232 4.296,-0.091 4.36,-0.029 4.229,0.231 3.861,0.514 3.499,0.795 2.876,1.076 2.146,1.091 1.414,1.106 0.793,0.853 0.432,0.587 0.064,0.319 -0.064,0.065 0,0"
             style="fill:#1a2e35;fill-opacity:1;fill-rule:nonzero;stroke:none"
             id="path424" />
        </g>
        <g
           id="g426"
           transform="translate(582.4703,374.1589)">
          <path
             d="m 0,0 c -0.035,-0.575 0.423,-1.079 1.023,-1.127 0.599,-0.048 1.115,0.378 1.15,0.954 C 2.208,0.402 1.75,0.907 1.15,0.955 0.551,1.003 0.035,0.575 0,0"
             style="fill:#1a2e35;fill-opacity:1;fill-rule:nonzero;stroke:none"
             id="path428" />
        </g>
        <g
           id="g430"
           transform="translate(582.3912,375.5905)">
          <path
             d="M 0,0 C 0.132,-0.146 0.975,0.444 2.147,0.411 3.319,0.395 4.165,-0.231 4.297,-0.091 4.36,-0.029 4.23,0.231 3.861,0.514 3.499,0.795 2.877,1.076 2.146,1.092 1.415,1.106 0.793,0.854 0.433,0.587 0.065,0.319 -0.064,0.065 0,0"
             style="fill:#1a2e35;fill-opacity:1;fill-rule:nonzero;stroke:none"
             id="path432" />
        </g>
        <g
           id="g434"
           transform="translate(577.9088,366.9987)">
          <path
             d="M 0,0 C 0.007,0.066 -0.72,0.211 -1.897,0.393 -2.196,0.432 -2.479,0.498 -2.523,0.704 -2.589,0.922 -2.455,1.242 -2.301,1.587 -2,2.305 -1.686,3.057 -1.355,3.846 -0.041,7.062 0.919,9.71 0.788,9.762 0.658,9.814 -0.513,7.249 -1.827,4.032 -2.144,3.239 -2.446,2.482 -2.734,1.759 -2.857,1.421 -3.063,1.04 -2.921,0.587 -2.846,0.361 -2.63,0.193 -2.439,0.136 -2.249,0.073 -2.08,0.065 -1.933,0.052 -0.744,-0.042 -0.007,-0.067 0,0"
             style="fill:#1a2e35;fill-opacity:1;fill-rule:nonzero;stroke:none"
             id="path436" />
        </g>
        <g
           id="g438"
           transform="translate(576.7389,353.1335)">
          <path
             d="m 0,0 c 0,0 5.711,-0.516 11.466,2.744 0,0 -2.913,-5.769 -11.403,-4.754 z"
             style="fill:#b66955;fill-opacity:1;fill-rule:nonzero;stroke:none"
             id="path440" />
        </g>
        <g
           id="g442"
           transform="translate(586.1471,378.9758)">
          <path
             d="m 0,0 c -0.24,-0.367 -1.133,-0.204 -2.133,-0.024 -0.996,0.201 -1.886,0.378 -1.974,0.808 -0.1,0.412 0.933,0.983 2.267,0.727 C -0.506,1.258 0.244,0.347 0,0"
             style="fill:#1a2e35;fill-opacity:1;fill-rule:nonzero;stroke:none"
             id="path444" />
        </g>
        <g
           id="g446"
           transform="translate(574.4801,380.6984)">
          <path
             d="m 0,0 c -0.091,-0.428 -1.047,-0.583 -2.148,-0.64 -1.104,-0.045 -2.069,0.023 -2.199,0.44 -0.132,0.405 0.8,1.062 2.126,1.12 C -0.895,0.983 0.094,0.415 0,0"
             style="fill:#1a2e35;fill-opacity:1;fill-rule:nonzero;stroke:none"
             id="path448" />
        </g>
        <g
           id="g450"
           transform="translate(577.9274,364.1896)">
          <path
             d="m 0,0 c -0.248,0.069 -0.525,-0.072 -0.649,-0.297 -0.149,-0.267 -0.08,-0.635 0.153,-0.831 0.233,-0.197 0.607,-0.203 0.846,-0.012 0.239,0.19 0.316,0.556 0.176,0.827 -0.14,0.271 -0.483,0.419 -0.777,0.334"
             style="fill:#b66955;fill-opacity:1;fill-rule:nonzero;stroke:none"
             id="path452" />
        </g>
        <g
           id="g454"
           transform="translate(578.2018,364.0739)">
          <path
             d="m 0,0 c 0.053,0.047 -0.187,0.335 -0.7,0.224 -0.237,-0.053 -0.547,-0.266 -0.642,-0.629 -0.094,-0.342 -0.009,-0.785 0.354,-1.063 0.375,-0.264 0.827,-0.21 1.125,-0.007 0.319,0.21 0.41,0.594 0.36,0.834 -0.103,0.527 -0.493,0.611 -0.504,0.537 -0.044,-0.065 0.136,-0.248 0.102,-0.56 -0.018,-0.153 -0.09,-0.295 -0.239,-0.367 -0.144,-0.08 -0.375,-0.079 -0.506,0.022 -0.138,0.097 -0.209,0.316 -0.18,0.484 0.02,0.168 0.133,0.293 0.268,0.37 C -0.283,0.002 -0.036,-0.072 0,0"
             style="fill:#1a2e35;fill-opacity:1;fill-rule:nonzero;stroke:none"
             id="path456" />
        </g>
        <g
           id="g458"
           transform="translate(592.9498,372.7917)">
          <path
             d="m 0,0 c -1.012,-2.344 -3.48,-4.15 -3.138,-6.68 0.221,-1.633 1.269,-3.156 1.065,-4.792 -0.256,-2.054 -2.39,-3.478 -2.692,-5.526 -0.371,-2.512 2.073,-4.464 3.049,-6.808 1.421,-3.413 -0.397,-7.252 -0.44,-10.949 -0.066,-5.662 4.751,-10.953 10.394,-11.417 2.283,-0.189 4.855,0.5 6.038,2.462 0.977,1.618 0.782,3.673 1.368,5.471 0.872,2.676 3.422,4.635 3.96,7.397 0.981,5.037 -5.107,9.205 -4.707,14.321 0.171,2.186 1.521,4.092 2.095,6.208 0.751,2.772 0.063,5.894 -1.786,8.092 -1.502,1.787 -3.682,2.962 -4.961,4.914 -1.451,2.214 -1.501,5.021 -2.049,7.611 -1.333,6.311 -6.072,11.793 -12.124,14.025 -6.051,2.232 -13.216,1.14 -18.328,-2.793 0,0 -1.454,-6.592 5.312,-7.693 6.764,-1.102 9.9,0.169 10.663,-2.543 0,0 -0.771,-3.167 2.026,-6.193 C -1.457,2.082 1.171,2.714 0,0"
             style="fill:#1a2e35;fill-opacity:1;fill-rule:nonzero;stroke:none"
             id="path460" />
        </g>
        <g
           id="g462"
           transform="translate(603.7457,327.0798)">
          <path
             d="m 0,0 c -0.003,-0.018 -0.214,0.005 -0.617,0.065 -0.403,0.062 -0.992,0.196 -1.721,0.464 -1.445,0.528 -3.491,1.678 -5.235,3.875 -0.866,1.089 -1.678,2.409 -2.225,3.961 -0.56,1.544 -0.88,3.292 -0.91,5.134 -0.043,1.844 0.219,3.776 0.722,5.71 0.251,0.969 0.577,1.934 0.957,2.894 0.374,0.962 0.834,1.89 1.097,2.872 0.285,0.979 0.246,1.979 -0.009,2.933 -0.261,0.955 -0.705,1.851 -1.138,2.738 -0.436,0.886 -0.879,1.771 -1.165,2.71 -0.291,0.932 -0.4,1.937 -0.21,2.874 0.398,1.884 1.543,3.278 2.218,4.708 0.715,1.418 0.938,2.916 0.905,4.26 -0.121,2.724 -1.282,4.739 -2.23,5.9 -0.988,1.162 -1.737,1.605 -1.699,1.653 0,0 0.793,-0.374 1.853,-1.522 1.015,-1.146 2.269,-3.188 2.444,-6.015 0.06,-1.393 -0.153,-2.971 -0.885,-4.464 -0.689,-1.482 -1.794,-2.887 -2.134,-4.611 -0.352,-1.737 0.47,-3.526 1.361,-5.267 0.435,-0.888 0.897,-1.807 1.18,-2.828 0.28,-1.014 0.321,-2.159 0.012,-3.204 -0.284,-1.049 -0.754,-1.989 -1.119,-2.929 -0.374,-0.94 -0.696,-1.886 -0.945,-2.832 -0.499,-1.892 -0.764,-3.778 -0.735,-5.573 C -10.216,9.902 -8.979,6.75 -7.284,4.632 -5.623,2.464 -3.66,1.294 -2.264,0.718 -0.849,0.146 0.013,0.059 0,0"
             style="fill:#375a64;fill-opacity:1;fill-rule:nonzero;stroke:none"
             id="path464" />
        </g>
        <g
           id="g466"
           transform="translate(602.7496,377.5412)">
          <path
             d="m 0,0 c 0.003,-0.033 -0.524,-0.128 -1.49,-0.222 -0.962,-0.08 -2.383,-0.192 -4.118,0.108 -1.695,0.31 -3.84,1.143 -5.198,3.154 -0.666,1.008 -0.93,2.23 -1.364,3.356 -0.408,1.141 -1.197,2.127 -2.278,2.812 -2.188,1.386 -4.762,1.557 -7.014,1.831 -2.263,0.255 -4.388,0.735 -5.828,1.815 -1.451,1.033 -2.195,2.374 -2.387,3.339 -0.108,0.484 -0.099,0.872 -0.077,1.128 0.036,0.257 0.064,0.388 0.082,0.386 0.064,-0.001 -0.069,-0.55 0.193,-1.464 0.241,-0.904 0.993,-2.14 2.4,-3.087 1.387,-0.983 3.42,-1.412 5.674,-1.64 2.231,-0.252 4.896,-0.391 7.24,-1.871 1.156,-0.721 2.052,-1.854 2.471,-3.064 0.445,-1.19 0.694,-2.362 1.292,-3.282 1.218,-1.861 3.236,-2.712 4.864,-3.051 1.67,-0.337 3.077,-0.286 4.036,-0.268 C -0.539,0.011 -0.004,0.038 0,0"
             style="fill:#375a64;fill-opacity:1;fill-rule:nonzero;stroke:none"
             id="path468" />
        </g>
        <g
           id="g470"
           transform="translate(600.2682,385.6848)">
          <path
             d="m 0,0 c 0.006,-0.025 -0.403,-0.153 -1.172,-0.172 -0.762,-0.022 -1.902,0.113 -3.157,0.711 -0.626,0.296 -1.268,0.722 -1.858,1.292 -0.6,0.565 -1.091,1.297 -1.551,2.069 -0.903,1.521 -1.77,3.397 -3.64,4.173 -1.832,0.785 -3.85,0.611 -5.602,0.492 -1.771,-0.174 -3.429,-0.226 -4.783,0.04 -1.362,0.237 -2.383,0.802 -2.95,1.324 -0.287,0.258 -0.481,0.488 -0.589,0.659 -0.112,0.169 -0.163,0.261 -0.148,0.271 0.042,0.032 0.28,-0.321 0.866,-0.774 0.582,-0.451 1.565,-0.934 2.883,-1.117 1.316,-0.21 2.901,-0.126 4.68,0.075 1.761,0.139 3.839,0.36 5.854,-0.494 0.996,-0.424 1.81,-1.172 2.388,-1.983 C -8.19,5.755 -7.769,4.908 -7.324,4.143 -6.883,3.377 -6.43,2.677 -5.883,2.137 -5.342,1.591 -4.748,1.17 -4.164,0.868 -2.991,0.259 -1.906,0.07 -1.167,0.03 -0.423,-0.013 -0.006,0.045 0,0"
             style="fill:#375a64;fill-opacity:1;fill-rule:nonzero;stroke:none"
             id="path472" />
        </g>
        <g
           id="g474"
           transform="translate(606.7301,329.238)">
          <path
             d="m 0,0 c -0.051,0.023 0.268,0.667 0.637,1.897 0.366,1.228 0.73,3.072 0.666,5.36 -0.078,2.274 -0.625,5.024 -2.132,7.636 -0.732,1.31 -1.843,2.477 -2.748,3.915 -0.45,0.718 -0.838,1.523 -1.008,2.414 -0.167,0.892 -0.065,1.839 0.222,2.699 0.56,1.726 1.565,3.181 1.781,4.768 0.268,1.592 -0.536,3.044 -1.298,4.335 -0.385,0.658 -0.77,1.309 -1.07,1.988 -0.3,0.68 -0.49,1.396 -0.566,2.088 -0.152,1.39 0.01,2.667 0.114,3.813 0.288,2.284 0.076,4.161 -0.475,5.314 -0.533,1.168 -1.231,1.518 -1.18,1.565 0.005,0.008 0.045,-0.011 0.121,-0.057 0.074,-0.048 0.191,-0.111 0.319,-0.228 0.266,-0.217 0.623,-0.602 0.923,-1.191 0.632,-1.168 0.904,-3.13 0.658,-5.434 -0.081,-1.151 -0.215,-2.413 -0.052,-3.729 0.133,-1.329 0.818,-2.584 1.621,-3.884 0.39,-0.659 0.8,-1.346 1.089,-2.125 0.296,-0.774 0.431,-1.658 0.301,-2.525 -0.243,-1.749 -1.274,-3.229 -1.79,-4.855 -0.269,-0.811 -0.355,-1.645 -0.208,-2.448 0.151,-0.801 0.503,-1.549 0.931,-2.239 0.858,-1.382 1.975,-2.572 2.73,-3.944 C 1.121,12.418 1.639,9.589 1.671,7.266 1.688,4.927 1.261,3.06 0.83,1.836 0.605,1.225 0.417,0.757 0.254,0.455 0.104,0.148 0.017,-0.008 0,0"
             style="fill:#375a64;fill-opacity:1;fill-rule:nonzero;stroke:none"
             id="path476" />
        </g>
        <g
           id="g478"
           transform="translate(565.9957,142.9118)">
          <path
             d="m 0,0 c 0,0 -6.734,63.843 -7.121,87.433 -0.387,23.59 10.606,46.866 10.606,46.866 l 43.083,1.822 c 0,0 8.516,-23.935 8.668,-33.989 C 55.533,82.593 50.045,63.298 50.678,47.799 L 52.118,0"
             style="fill:#1a2e35;fill-opacity:1;fill-rule:nonzero;stroke:none"
             id="path480" />
        </g>
        <g
           id="g482"
           transform="translate(619.5553,221.3972)">
          <path
             d="m 0,0 c 0.009,-0.016 -0.235,-0.199 -0.703,-0.532 -0.12,-0.085 -0.251,-0.178 -0.393,-0.278 -0.134,-0.114 -0.265,-0.257 -0.417,-0.402 -0.302,-0.291 -0.655,-0.62 -0.96,-1.075 -1.391,-1.704 -2.406,-4.747 -3.37,-8.545 -0.532,-1.886 -1.07,-4.002 -2.181,-6.073 -0.298,-0.506 -0.565,-1.042 -0.956,-1.513 -0.188,-0.239 -0.358,-0.497 -0.563,-0.728 l -0.664,-0.663 c -0.899,-0.884 -2.039,-1.551 -3.24,-2.078 -2.411,-1.057 -5.134,-1.558 -7.621,-2.806 -2.503,-1.219 -4.38,-3.582 -5.53,-6.303 -1.213,-2.71 -1.949,-5.555 -2.961,-8.211 -0.994,-2.635 -2.347,-5.2 -4.497,-6.82 -2.132,-1.679 -4.768,-2.063 -7.05,-2.21 -2.32,-0.135 -4.468,-0.069 -6.395,-0.36 -1.919,-0.266 -3.62,-0.875 -4.822,-1.82 -1.206,-0.948 -1.91,-2.137 -2.241,-3.155 -0.342,-1.031 -0.281,-1.899 -0.167,-2.452 0.111,-0.562 0.269,-0.83 0.234,-0.845 0,0 -0.189,0.253 -0.336,0.82 -0.15,0.56 -0.249,1.459 0.075,2.536 0.314,1.066 1.014,2.312 2.253,3.324 1.243,1.012 2.992,1.66 4.949,1.956 1.962,0.32 4.134,0.274 6.42,0.427 2.261,0.163 4.783,0.56 6.788,2.16 2.032,1.544 3.336,4.012 4.313,6.621 0.994,2.625 1.725,5.474 2.963,8.243 1.161,2.768 3.151,5.282 5.773,6.544 2.586,1.284 5.31,1.769 7.661,2.792 1.171,0.507 2.259,1.136 3.119,1.973 l 0.637,0.626 c 0.198,0.219 0.362,0.466 0.544,0.695 0.379,0.447 0.642,0.965 0.934,1.452 1.095,1.999 1.654,4.092 2.206,5.967 1.008,3.777 2.094,6.87 3.566,8.572 0.323,0.453 0.695,0.779 1.015,1.063 0.159,0.141 0.299,0.282 0.44,0.391 0.15,0.094 0.287,0.181 0.413,0.261 C -0.27,-0.137 -0.009,0.016 0,0"
             style="fill:#fafafa;fill-opacity:1;fill-rule:nonzero;stroke:none"
             id="path484" />
        </g>
        <g
           id="g486"
           transform="translate(619.8209,250.9411)">
          <path
             d="m 0,0 c 0.018,0.001 0.037,-0.292 0.056,-0.855 0.008,-0.562 -0.06,-1.396 -0.299,-2.443 -0.5,-2.081 -2.021,-4.939 -4.867,-7.525 -1.407,-1.299 -3.105,-2.555 -5.045,-3.686 -1.931,-1.145 -4.061,-2.235 -6.242,-3.469 -2.174,-1.236 -4.416,-2.633 -6.386,-4.49 -1.996,-1.834 -3.491,-4.244 -4.837,-6.797 -1.36,-2.548 -2.565,-5.143 -4.194,-7.389 -0.809,-1.122 -1.723,-2.147 -2.735,-3.024 -1.017,-0.871 -2.126,-1.579 -3.252,-2.166 -2.26,-1.173 -4.561,-1.898 -6.694,-2.566 -2.138,-0.661 -4.132,-1.246 -5.875,-1.977 -1.746,-0.72 -3.259,-1.535 -4.482,-2.4 -1.222,-0.865 -2.153,-1.774 -2.812,-2.594 -1.332,-1.649 -1.612,-2.845 -1.688,-2.805 -0.016,0.006 0.079,0.284 0.278,0.811 0.231,0.511 0.589,1.271 1.251,2.119 0.646,0.855 1.574,1.802 2.802,2.705 1.227,0.903 2.75,1.752 4.508,2.503 1.758,0.762 3.762,1.372 5.888,2.05 2.123,0.684 4.397,1.42 6.602,2.579 1.097,0.58 2.17,1.273 3.15,2.118 0.975,0.852 1.856,1.846 2.644,2.945 1.588,2.197 2.782,4.771 4.149,7.335 1.351,2.565 2.89,5.044 4.946,6.924 2.026,1.898 4.308,3.305 6.501,4.537 2.201,1.229 4.334,2.303 6.259,3.424 1.932,1.104 3.613,2.322 5.016,3.584 2.834,2.514 4.367,5.279 4.92,7.306 C 0.099,-1.199 -0.08,0.005 0,0"
             style="fill:#fafafa;fill-opacity:1;fill-rule:nonzero;stroke:none"
             id="path488" />
        </g>
        <g
           id="g490"
           transform="translate(559.0924,226.9636)">
          <path
             d="m 0,0 c -0.009,-0.003 -0.038,0.062 -0.088,0.193 -0.043,0.134 -0.135,0.327 -0.193,0.596 -0.122,0.534 -0.198,1.378 0.1,2.398 0.556,2.036 2.768,4.569 6.332,5.838 1.774,0.61 3.787,0.977 5.882,1.526 2.072,0.558 4.33,1.341 6.017,3.073 0.837,0.855 1.545,1.873 2.134,2.992 0.574,1.129 1.047,2.341 1.494,3.592 0.896,2.495 1.648,5.205 3.17,7.668 1.511,2.483 3.974,4.208 6.523,5.073 2.543,0.933 5.107,1.347 7.485,1.896 2.386,0.519 4.616,1.192 6.509,2.217 1.865,1.06 3.352,2.471 4.405,3.967 2.157,2.999 2.721,6.071 2.798,8.101 0.047,2.063 -0.281,3.186 -0.213,3.196 0,0 0.4,-1.104 0.416,-3.201 -0.016,-2.06 -0.53,-5.207 -2.702,-8.309 -1.06,-1.547 -2.572,-3.018 -4.494,-4.131 -1.94,-1.074 -4.217,-1.773 -6.612,-2.308 -2.391,-0.564 -4.94,-0.989 -7.414,-1.906 C 29.06,31.613 26.746,29.98 25.289,27.6 23.82,25.227 23.065,22.547 22.158,20.037 21.705,18.777 21.22,17.545 20.625,16.387 20.015,15.235 19.271,14.176 18.388,13.283 16.597,11.467 14.238,10.68 12.143,10.134 10.017,9.597 8.016,9.253 6.268,8.676 2.8,7.492 0.6,5.064 0.013,3.126 -0.304,2.154 -0.265,1.339 -0.179,0.81 -0.066,0.283 0.023,0.008 0,0"
             style="fill:#fafafa;fill-opacity:1;fill-rule:nonzero;stroke:none"
             id="path492" />
        </g>
        <g
           id="g494"
           transform="translate(616.1158,172.9811)">
          <path
             d="m 0,0 c 0.018,0.002 0.041,-0.213 0.069,-0.627 0.024,-0.413 -0.008,-1.032 -0.184,-1.806 -0.353,-1.54 -1.542,-3.648 -3.78,-5.402 -1.101,-0.889 -2.434,-1.703 -3.965,-2.354 -1.527,-0.655 -3.215,-1.173 -4.979,-1.722 -1.762,-0.55 -3.61,-1.126 -5.408,-1.975 -1.811,-0.829 -3.482,-2.043 -4.922,-3.591 -1.459,-1.527 -2.718,-3.197 -4.114,-4.67 -1.391,-1.483 -2.971,-2.705 -4.609,-3.607 -3.291,-1.817 -6.703,-2.441 -9.51,-2.473 -2.828,-0.031 -5.074,0.564 -6.545,1.088 -0.743,0.259 -1.295,0.518 -1.661,0.712 -0.37,0.185 -0.559,0.288 -0.551,0.305 0.008,0.016 0.213,-0.057 0.595,-0.21 0.376,-0.162 0.937,-0.389 1.681,-0.615 1.477,-0.46 3.698,-0.989 6.475,-0.911 2.755,0.078 6.087,0.728 9.282,2.523 1.594,0.895 3.113,2.081 4.472,3.538 1.367,1.451 2.621,3.12 4.108,4.681 1.465,1.578 3.227,2.853 5.08,3.691 1.847,0.863 3.72,1.434 5.487,1.972 1.767,0.537 3.448,1.037 4.952,1.661 1.501,0.619 2.815,1.397 3.904,2.246 2.213,1.678 3.407,3.683 3.812,5.165 C 0.084,-0.884 -0.072,0.002 0,0"
             style="fill:#fafafa;fill-opacity:1;fill-rule:nonzero;stroke:none"
             id="path496" />
        </g>
        <g
           id="g498"
           transform="translate(611.2047,305.5363)">
          <path
             d="m 0,0 -8.33,-0.197 c -0.547,-2.806 -1.884,-4.726 -1.884,-4.726 -6.966,12.092 -12.367,28.292 -13.708,34.803 0.195,0.65 0.427,1.37 0.716,2.174 0.333,0.928 0.047,2.686 -0.11,3.661 -0.234,1.45 -0.639,3.401 -0.761,4.304 -0.371,2.751 -0.815,3.183 -1.775,2.872 -1.304,-0.424 0.536,-7.727 -0.534,-7.885 -0.575,-0.086 -1.278,2.416 -1.481,4.47 -0.204,2.053 -1.133,8.368 -1.812,8.789 -0.994,0.617 -1.861,-0.359 -1.61,-2.404 0.254,-2.069 0.575,-8.239 -0.51,-8.323 -1.069,-0.082 -1.967,10.388 -1.967,10.388 0,0 0.169,2.278 -1.087,2.223 -2.265,-0.098 -0.495,-11.136 -0.301,-12.182 0.135,-0.727 -1.041,-0.86 -1.145,-0.071 -0.106,0.812 -0.653,10.47 -2.96,10.393 -1.771,-0.06 1.371,-9.097 0.377,-11.191 -0.994,-2.095 -1.684,7.114 -3.375,6.987 -0.629,-0.047 -1.095,-0.17 0.062,-5.381 0.622,-2.801 2.447,-7.951 4.043,-12.215 2.678,-14.45 14.436,-60.676 32.87,-52.214 10.314,4.734 14.5,25.72 14.5,25.72 z"
             style="fill:#c78976;fill-opacity:1;fill-rule:nonzero;stroke:none"
             id="path500" />
        </g>
        <g
           id="g502"
           transform="translate(575.6569,342.7956)">
          <path
             d="m 0,0 c 0,0 0.084,-0.015 0.24,0.033 0.141,0.044 0.419,0.219 0.376,0.578 -0.023,0.62 -0.121,1.525 -0.264,2.694 -0.107,1.176 -0.459,2.589 -0.46,4.26 -0.014,0.838 0.007,1.737 0.055,2.691 0.032,0.477 0.04,0.972 0.146,1.44 0.079,0.453 0.382,0.971 0.731,0.909 L 0.863,12.599 0.88,12.6 C 1.235,12.616 1.514,12.339 1.628,11.915 1.753,11.51 1.784,11.032 1.759,10.576 L 1.758,10.557 1.76,10.544 C 1.993,7.986 2.245,5.186 2.828,2.195 2.909,1.821 2.992,1.445 3.108,1.066 3.166,0.876 3.233,0.686 3.316,0.493 3.37,0.395 3.404,0.3 3.486,0.197 3.558,0.11 3.647,-0.042 3.904,-0.065 4.319,-0.035 4.439,0.28 4.533,0.459 4.623,0.667 4.679,0.871 4.721,1.074 4.807,1.481 4.85,1.887 4.881,2.295 4.991,3.926 4.935,5.59 4.814,7.297 4.775,8.159 4.563,9.02 4.71,9.802 c 0.069,0.385 0.229,0.773 0.492,0.933 0.128,0.078 0.273,0.094 0.431,0.054 C 5.712,10.766 5.791,10.734 5.87,10.686 5.936,10.623 5.921,10.651 5.98,10.539 6.314,9.823 6.486,8.89 6.674,8.025 6.852,7.14 7.005,6.238 7.146,5.326 7.287,4.415 7.416,3.491 7.524,2.562 c 0.09,-0.93 0.225,-1.905 0.461,-2.845 0.12,-0.473 0.253,-0.945 0.452,-1.413 0.101,-0.235 0.207,-0.468 0.412,-0.707 0.074,-0.102 0.307,-0.293 0.598,-0.218 0.282,0.095 0.363,0.319 0.408,0.449 0.163,0.575 0.115,1.053 0.107,1.556 C 9.94,-0.12 9.899,0.371 9.857,0.861 9.786,1.704 9.706,2.537 9.677,3.358 9.664,3.767 9.663,4.176 9.707,4.561 9.731,4.749 9.764,4.943 9.828,5.083 9.858,5.153 9.896,5.205 9.925,5.231 9.94,5.248 9.95,5.24 9.964,5.256 l 0.129,0.037 c 0.664,0.274 0.884,-0.648 1.06,-1.393 0.154,-0.775 0.251,-1.576 0.408,-2.365 0.263,-1.576 0.599,-3.14 0.775,-4.645 0.072,-0.745 0.126,-1.52 -0.088,-2.152 -0.236,-0.723 -0.471,-1.439 -0.702,-2.145 l -0.021,-0.065 0.015,-0.067 c 1.219,-5.377 2.907,-10.188 4.475,-14.459 1.583,-4.267 3.166,-7.955 4.563,-10.97 1.393,-3.019 2.643,-5.345 3.506,-6.931 0.437,-0.752 0.783,-1.346 1.04,-1.788 0.241,-0.403 0.373,-0.608 0.387,-0.601 0.013,0.008 -0.092,0.228 -0.308,0.646 -0.238,0.451 -0.558,1.058 -0.964,1.827 -0.812,1.61 -2.013,3.953 -3.36,6.984 -1.352,3.028 -2.893,6.722 -4.439,10.99 -1.529,4.266 -3.189,9.09 -4.375,14.41 L 12.06,-7.562 c 0.23,0.698 0.464,1.403 0.7,2.117 0.269,0.816 0.189,1.612 0.123,2.392 -0.179,1.564 -0.506,3.084 -0.767,4.666 -0.154,0.783 -0.249,1.586 -0.41,2.405 -0.095,0.409 -0.184,0.821 -0.408,1.238 -0.109,0.202 -0.276,0.432 -0.552,0.556 -0.279,0.121 -0.564,0.087 -0.789,0.032 L 9.789,5.796 C 9.714,5.762 9.62,5.722 9.562,5.668 9.435,5.557 9.361,5.43 9.309,5.312 9.204,5.073 9.174,4.851 9.143,4.629 9.093,4.19 9.096,3.764 9.108,3.339 9.138,2.491 9.219,1.652 9.29,0.813 9.331,0.325 9.372,-0.161 9.393,-0.64 9.409,-1.107 9.426,-1.623 9.318,-1.984 9.294,-2.089 9.244,-2.069 9.302,-2.121 L 9.304,-2.125 C 9.299,-2.091 9.312,-2.176 9.31,-2.162 l -0.002,0.01 c -0.002,0.013 0,0.026 0.003,0.035 0.005,0.009 0.027,0.044 0.014,0.046 -0.008,0.003 -0.031,0.017 -0.06,0.055 -0.11,0.127 -0.22,0.335 -0.305,0.542 C 8.781,-1.055 8.65,-0.599 8.535,-0.146 8.306,0.771 8.177,1.681 8.084,2.626 7.973,3.567 7.841,4.494 7.697,5.412 7.553,6.33 7.396,7.238 7.215,8.135 7.009,9.037 6.876,9.904 6.454,10.805 6.429,10.896 6.25,11.098 6.141,11.157 6.028,11.224 5.903,11.276 5.769,11.313 5.499,11.388 5.17,11.354 4.923,11.196 4.427,10.868 4.273,10.347 4.184,9.895 4.104,9.428 4.115,8.969 4.167,8.524 4.217,8.097 4.259,7.679 4.292,7.256 4.418,5.573 4.481,3.916 4.382,2.332 4.354,1.937 4.313,1.546 4.237,1.176 4.201,0.991 4.15,0.812 4.086,0.658 4.054,0.583 4.014,0.511 3.977,0.471 3.939,0.388 3.908,0.49 3.911,0.355 3.962,0.458 3.913,0.401 3.874,0.487 3.831,0.534 3.795,0.624 3.755,0.694 3.684,0.857 3.622,1.03 3.566,1.207 3.455,1.562 3.37,1.93 3.289,2.293 2.695,5.23 2.417,8.039 2.159,10.578 V 10.546 C 2.181,11.06 2.147,11.551 1.996,12.033 1.92,12.271 1.808,12.512 1.605,12.699 1.406,12.892 1.12,12.978 0.864,12.97 L 0.919,12.964 C 0.518,13.035 0.224,12.792 0.057,12.55 -0.114,12.302 -0.191,12.033 -0.25,11.774 -0.36,11.249 -0.358,10.75 -0.384,10.271 -0.42,9.31 -0.428,8.404 -0.399,7.558 -0.367,5.852 0.017,4.439 0.152,3.277 0.326,2.115 0.456,1.214 0.513,0.605 0.575,0.316 0.343,0.13 0.221,0.082 0.081,0.021 -0.002,0.012 0,0"
             style="fill:#b66955;fill-opacity:1;fill-rule:nonzero;stroke:none"
             id="path504" />
        </g>
        <g
           id="g506"
           transform="translate(510.5319,291.7682)">
          <path
             d="M 0,0 C 0,0 -2.768,0.132 -5.793,-0.665 -10.957,-2.023 -19.872,-7.426 -20.241,-14.1 h 6.474 c 0,0 -3.626,-7.719 -2.56,-7.004 2.764,1.854 8.268,7.447 8.268,7.447 z"
             style="fill:#c78976;fill-opacity:1;fill-rule:nonzero;stroke:none"
             id="path508" />
        </g>
        <g
           id="g510"
           transform="translate(598.858,407.9562)">
          <path
             d="m 0,0 c -0.144,-0.013 -0.731,5.341 -1.312,11.957 -0.583,6.617 -0.938,11.99 -0.794,12.002 0.143,0.013 0.73,-5.339 1.312,-11.957 C -0.212,5.387 0.144,0.013 0,0"
             style="fill:#1a2e35;fill-opacity:1;fill-rule:nonzero;stroke:none"
             id="path512" />
        </g>
        <g
           id="g514"
           transform="translate(627.2653,431.5891)">
          <path
             d="m 0,0 c 0.117,-0.083 -4.258,-6.433 -9.771,-14.181 -5.513,-7.75 -10.078,-13.963 -10.195,-13.88 -0.117,0.084 4.257,6.432 9.772,14.183 C -4.682,-6.131 -0.117,0.083 0,0"
             style="fill:#1a2e35;fill-opacity:1;fill-rule:nonzero;stroke:none"
             id="path516" />
        </g>
        <g
           id="g518"
           transform="translate(639.068,402.8117)">
          <path
             d="m 0,0 c 0.029,-0.141 -5.076,-1.31 -11.401,-2.609 -6.328,-1.301 -11.48,-2.241 -11.509,-2.099 -0.028,0.14 5.076,1.308 11.403,2.609 C -5.181,-0.799 -0.028,0.141 0,0"
             style="fill:#1a2e35;fill-opacity:1;fill-rule:nonzero;stroke:none"
             id="path520" />
        </g>
      </g>
    </g>
    <g
       id="g522">
      <g
         id="g524"
         clip-path="url(#clipPath528)">
        <g
           id="g530"
           transform="translate(298.9586,265.4562)">
          <path
             d="m 0,0 -35.361,-181.799 -4.629,-23.799 236.063,1.164 c 10.594,0.053 19.983,9.459 23.391,23.434 l 41.859,171.638 c 2.588,10.609 -3.09,21.644 -11.132,21.636 L 11.268,12.022 C 5.993,12.017 1.38,7.095 0,0"
             style="fill:#ff4f5b;fill-opacity:1;fill-rule:nonzero;stroke:none"
             id="path532" />
        </g>
        <g
           id="g534">
          <g
             id="g536" />
          <g
             id="g548">
            <g
               clip-path="url(#clipPath540)"
               opacity="0.5"
               id="g546">
              <g
                 transform="translate(298.9586,265.4562)"
                 id="g544">
                <path
                   d="m 0,0 -35.361,-181.799 -4.629,-23.799 236.063,1.164 c 10.594,0.053 19.983,9.459 23.391,23.434 l 41.859,171.638 c 2.588,10.609 -3.09,21.644 -11.132,21.636 L 11.268,12.022 C 5.993,12.017 1.38,7.095 0,0"
                   style="fill:#000000;fill-opacity:1;fill-rule:nonzero;stroke:none"
                   id="path542" />
              </g>
            </g>
          </g>
        </g>
        <g
           id="g550"
           transform="translate(472.3873,95.9743)">
          <path
             d="m 0,0 -24.994,201.408 c -1.024,8.252 -7.598,14.408 -15.36,14.383 l -54.806,-0.18 c -4.056,-0.013 -7.945,-1.737 -10.827,-4.8 l -26.024,-27.665 -152.426,-0.795 c -9.315,-0.048 -16.471,-8.862 -15.237,-18.765 l 23.206,-186.152 c 1.028,-8.242 7.589,-14.389 15.34,-14.374 L 4.519,-36.415 C 34.105,-37.028 36.93,-28.29 36.93,-28.29 3.022,-35.805 0.003,-0.023 0,0"
             style="fill:#ff4f5b;fill-opacity:1;fill-rule:nonzero;stroke:none"
             id="path552" />
        </g>
        <g
           id="g554">
          <g
             id="g556" />
          <g
             id="g572">
            <g
               clip-path="url(#clipPath560)"
               opacity="0.5"
               id="g570">
              <g
                 transform="translate(357.8424,136.2829)"
                 id="g564">
                <path
                   d="m 0,0 -8.959,-9.622 -69.003,62.074 8.96,9.623 z"
                   style="fill:#ffffff;fill-opacity:1;fill-rule:nonzero;stroke:none"
                   id="path562" />
              </g>
              <g
                 transform="translate(345.1281,200.4919)"
                 id="g568">
                <path
                   d="m 0,0 9.902,-8.908 -62.436,-67.057 -9.901,8.908 z"
                   style="fill:#ffffff;fill-opacity:1;fill-rule:nonzero;stroke:none"
                   id="path566" />
              </g>
            </g>
          </g>
        </g>
      </g>
    </g>
    <g
       id="g574">
      <g
         id="g576"
         clip-path="url(#clipPath580)">
        <g
           id="g582"
           transform="translate(510.3199,396.2155)">
          <path
             d="m 0,0 c -0.639,0.273 -1.098,0.895 -1.131,1.636 l -0.398,9.283 c -0.027,0.584 0.223,1.147 0.674,1.519 0.45,0.373 1.049,0.512 1.618,0.377 1.492,-0.352 3.137,-0.027 4.514,0.893 1.269,0.846 2.119,2.092 2.335,3.418 0.216,1.323 -0.193,2.786 -1.122,4.016 -0.996,1.316 -2.466,2.204 -3.94,2.373 -3.012,0.347 -6.263,-1.96 -7.1,-5.038 -0.269,-0.994 -1.295,-1.581 -2.289,-1.311 -1.011,0.278 -1.582,1.295 -1.311,2.29 1.314,4.837 6.305,8.322 11.128,7.766 2.5,-0.288 4.869,-1.684 6.489,-3.83 1.542,-2.04 2.208,-4.542 1.829,-6.866 C 10.913,14.181 9.476,12.022 7.35,10.604 5.813,9.579 4.051,9.013 2.289,8.951 L 2.599,1.796 C 2.643,0.766 1.844,-0.104 0.814,-0.148 0.525,-0.16 0.249,-0.107 0,0"
             style="fill:#ff4f5b;fill-opacity:1;fill-rule:nonzero;stroke:none"
             id="path584" />
        </g>
        <g
           id="g586"
           transform="translate(513.0553,392.423)">
          <path
             d="m 0,0 c 0.058,-0.841 -0.577,-1.57 -1.418,-1.628 -0.841,-0.058 -1.57,0.577 -1.628,1.419 -0.058,0.84 0.577,1.569 1.418,1.627 C -0.786,1.476 -0.058,0.841 0,0"
             style="fill:#ff4f5b;fill-opacity:1;fill-rule:nonzero;stroke:none"
             id="path588" />
        </g>
        <g
           id="g590"
           transform="translate(478.1862,409.3063)">
          <path
             d="m 0,0 c 0.013,0 0.043,0.206 0.091,0.609 0.047,0.434 0.112,1.027 0.195,1.787 0.045,0.792 0.247,1.747 0.485,2.875 0.13,0.56 0.2,1.183 0.405,1.813 0.194,0.633 0.401,1.307 0.62,2.019 0.968,2.808 2.46,6.176 4.973,9.526 2.494,3.344 6.001,6.646 10.502,9.149 2.216,1.322 4.752,2.243 7.41,3.056 2.699,0.639 5.56,1.187 8.549,1.116 1.496,0.08 3.002,-0.139 4.538,-0.268 0.767,-0.074 1.522,-0.278 2.293,-0.412 0.77,-0.143 1.545,-0.293 2.3,-0.556 3.087,-0.792 6.086,-2.248 8.945,-4.053 5.736,-3.609 10.567,-9.481 13.217,-16.599 1.33,-3.562 1.965,-7.465 1.96,-11.409 0.08,-3.95 -0.685,-7.964 -2.091,-11.741 l -0.452,-1.142 -0.059,-0.151 0.061,-0.141 c 2.508,-5.777 4.968,-11.443 7.352,-16.933 l 0.42,0.478 c -5.164,1.984 -10.172,3.908 -14.976,5.754 l -0.185,0.071 -0.146,-0.141 c -4.155,-4.025 -9.117,-6.747 -14.141,-8.165 -5.04,-1.42 -10.117,-1.493 -14.734,-0.673 -4.627,0.819 -8.793,2.589 -12.266,4.864 -3.485,2.275 -6.279,5.041 -8.433,7.852 -2.138,2.842 -3.547,5.756 -4.609,8.359 -0.937,2.66 -1.511,5.02 -1.788,6.975 C 0.317,-5.105 0.212,-4.237 0.121,-3.48 0.102,-2.732 0.085,-2.096 0.071,-1.569 0.055,-1.078 0.042,-0.691 0.032,-0.398 0.021,-0.135 0.01,0 0,0 -0.009,0 -0.017,-0.133 -0.023,-0.397 -0.027,-0.69 -0.033,-1.078 -0.039,-1.571 -0.04,-2.1 -0.042,-2.74 -0.043,-3.493 c 0.077,-0.763 0.165,-1.638 0.265,-2.622 0.247,-1.973 0.793,-4.363 1.709,-7.062 1.045,-2.641 2.443,-5.604 4.585,-8.5 2.158,-2.865 4.971,-5.689 8.493,-8.019 3.511,-2.33 7.731,-4.151 12.428,-5.005 4.687,-0.854 9.847,-0.8 14.981,0.629 5.118,1.426 10.182,4.184 14.427,8.281 l -0.331,-0.07 c 4.801,-1.853 9.805,-3.785 14.967,-5.777 l 0.755,-0.292 -0.334,0.769 c -2.38,5.493 -4.837,11.159 -7.341,16.937 l 0.002,-0.291 0.46,1.167 c 1.438,3.861 2.217,7.966 2.136,12.004 0.003,4.03 -0.653,8.02 -2.014,11.657 -2.715,7.271 -7.658,13.246 -13.51,16.909 -2.915,1.832 -5.974,3.302 -9.117,4.099 -0.77,0.263 -1.558,0.414 -2.342,0.556 -0.785,0.134 -1.554,0.339 -2.333,0.411 -1.562,0.126 -3.095,0.341 -4.613,0.254 -3.038,0.058 -5.944,-0.51 -8.679,-1.175 -2.697,-0.839 -5.264,-1.79 -7.505,-3.144 C 12.494,25.655 8.965,22.281 6.47,18.874 3.956,15.46 2.483,12.038 1.546,9.192 1.336,8.471 1.137,7.789 0.95,7.147 0.754,6.509 0.694,5.88 0.572,5.314 0.355,4.174 0.174,3.21 0.15,2.413 0.096,1.647 0.053,1.05 0.021,0.613 -0.004,0.208 -0.012,0 0,0"
             style="fill:#1a2e35;fill-opacity:1;fill-rule:nonzero;stroke:none"
             id="path592" />
        </g>
      </g>
    </g>
  </g>
</svg>
